<mxfile host="Electron" modified="2025-04-01T12:34:19.334Z" agent="Mozilla/5.0 (Windows NT 10.0; Win64; x64) AppleWebKit/537.36 (KHTML, like Gecko) draw.io/22.1.2 Chrome/114.0.5735.289 Electron/25.9.4 Safari/537.36" etag="U379C3nlOuS0bz--UCzx" version="22.1.2" type="device">
  <diagram name="Page-1" id="gyTd1Sh2LbSQvP7gPTzE">
    <mxGraphModel dx="2068" dy="1210" grid="1" gridSize="10" guides="1" tooltips="1" connect="1" arrows="1" fold="1" page="1" pageScale="1" pageWidth="1920" pageHeight="1200" math="0" shadow="0">
      <root>
        <mxCell id="0" />
        <mxCell id="1" parent="0" />
        <mxCell id="prUhgWZdjSa96GHESbX6-11" value="" style="rounded=1;whiteSpace=wrap;html=1;strokeWidth=13;fillColor=#a0522d;fontColor=#ffffff;strokeColor=#6D1F00;" parent="1" vertex="1">
          <mxGeometry x="1350" y="40" width="530" height="400" as="geometry" />
        </mxCell>
        <mxCell id="prUhgWZdjSa96GHESbX6-1" value="&lt;font size=&quot;1&quot; style=&quot;&quot;&gt;&lt;b style=&quot;font-size: 30px;&quot;&gt;OBD_2_Output&lt;/b&gt;&lt;/font&gt;" style="dashed=0;outlineConnect=0;html=1;align=center;labelPosition=center;verticalLabelPosition=bottom;verticalAlign=top;shape=mxgraph.webicons.json;gradientColor=#DFDEDE" parent="1" vertex="1">
          <mxGeometry x="1708" y="60" width="102.4" height="102.4" as="geometry" />
        </mxCell>
        <mxCell id="prUhgWZdjSa96GHESbX6-9" style="edgeStyle=orthogonalEdgeStyle;rounded=0;orthogonalLoop=1;jettySize=auto;html=1;entryX=1;entryY=0.5;entryDx=0;entryDy=0;fontSize=11;strokeWidth=6;fillColor=#60a917;strokeColor=#00FF00;" parent="1" source="prUhgWZdjSa96GHESbX6-2" target="prUhgWZdjSa96GHESbX6-5" edge="1">
          <mxGeometry relative="1" as="geometry" />
        </mxCell>
        <mxCell id="prUhgWZdjSa96GHESbX6-2" value="&lt;font size=&quot;1&quot; style=&quot;&quot;&gt;&lt;b style=&quot;font-size: 30px;&quot;&gt;OBD_2_Input&lt;/b&gt;&lt;/font&gt;" style="dashed=0;outlineConnect=0;html=1;align=center;labelPosition=center;verticalLabelPosition=bottom;verticalAlign=top;shape=mxgraph.webicons.json;gradientColor=#DFDEDE" parent="1" vertex="1">
          <mxGeometry x="1708" y="280" width="102.4" height="102.4" as="geometry" />
        </mxCell>
        <mxCell id="prUhgWZdjSa96GHESbX6-8" style="edgeStyle=orthogonalEdgeStyle;rounded=0;orthogonalLoop=1;jettySize=auto;html=1;fontSize=11;strokeWidth=6;fillColor=#60a917;strokeColor=#00FF00;" parent="1" source="prUhgWZdjSa96GHESbX6-4" target="prUhgWZdjSa96GHESbX6-1" edge="1">
          <mxGeometry relative="1" as="geometry" />
        </mxCell>
        <mxCell id="prUhgWZdjSa96GHESbX6-4" value="&lt;div style=&quot;font-family: Consolas, &amp;quot;Courier New&amp;quot;, monospace; font-size: 30px; line-height: 19px;&quot;&gt;&lt;font style=&quot;background-color: rgb(255, 128, 0);&quot;&gt;CanCom_TX&lt;/font&gt;&lt;/div&gt;" style="rounded=1;whiteSpace=wrap;html=1;fontSize=30;fontStyle=1;fillColor=#fa6800;fontColor=#000000;strokeColor=#C73500;strokeWidth=7;" parent="1" vertex="1">
          <mxGeometry x="1368" y="81.19999999999999" width="220" height="60" as="geometry" />
        </mxCell>
        <mxCell id="prUhgWZdjSa96GHESbX6-5" value="&lt;div style=&quot;font-family: Consolas, &amp;quot;Courier New&amp;quot;, monospace; font-size: 30px; line-height: 19px;&quot;&gt;&lt;span style=&quot;background-color: rgb(255, 128, 0);&quot;&gt;CanCom_RX&lt;/span&gt;&lt;/div&gt;" style="rounded=1;whiteSpace=wrap;html=1;fontSize=30;fontStyle=1;fillColor=#fa6800;fontColor=#000000;strokeColor=#C73500;strokeWidth=7;" parent="1" vertex="1">
          <mxGeometry x="1368" y="301.20000000000005" width="220" height="60" as="geometry" />
        </mxCell>
        <mxCell id="prUhgWZdjSa96GHESbX6-12" value="" style="rounded=1;whiteSpace=wrap;html=1;strokeWidth=13;fillColor=#6d8764;fontColor=#ffffff;strokeColor=#3A5431;" parent="1" vertex="1">
          <mxGeometry x="40" y="40" width="1270" height="400" as="geometry" />
        </mxCell>
        <mxCell id="prUhgWZdjSa96GHESbX6-13" value="&lt;div style=&quot;font-family: Consolas, &amp;quot;Courier New&amp;quot;, monospace; line-height: 19px;&quot;&gt;&lt;div style=&quot;line-height: 19px;&quot;&gt;&lt;font style=&quot;font-size: 30px;&quot;&gt;EngStat_MainFunction&lt;/font&gt;&lt;/div&gt;&lt;/div&gt;" style="rounded=1;whiteSpace=wrap;html=1;fontSize=30;fontStyle=1;fillColor=#6d8764;fontColor=#FFFFFF;strokeColor=#3A5431;strokeWidth=7;labelBackgroundColor=#6A997E;" parent="1" vertex="1">
          <mxGeometry x="485" y="60" width="380" height="60" as="geometry" />
        </mxCell>
        <mxCell id="prUhgWZdjSa96GHESbX6-14" value="" style="rounded=0;whiteSpace=wrap;html=1;fillColor=#6d8764;fontColor=#ffffff;strokeColor=#3A5431;strokeWidth=5;" parent="1" vertex="1">
          <mxGeometry x="60" y="130" width="1230" height="270" as="geometry" />
        </mxCell>
        <mxCell id="prUhgWZdjSa96GHESbX6-15" value="&lt;div style=&quot;font-family: Consolas, &amp;quot;Courier New&amp;quot;, monospace; line-height: 19px; font-size: 30px;&quot;&gt;&lt;div style=&quot;line-height: 19px; font-size: 30px;&quot;&gt;&lt;div style=&quot;font-weight: normal; font-size: 30px; line-height: 19px;&quot;&gt;EngStat_calcRpm&lt;/div&gt;&lt;/div&gt;&lt;/div&gt;" style="rounded=1;whiteSpace=wrap;html=1;fontSize=30;fontStyle=1;fillColor=#6d8764;fontColor=#FFFFFF;strokeColor=#3A5431;strokeWidth=7;labelBackgroundColor=#6A997E;" parent="1" vertex="1">
          <mxGeometry x="80" y="150" width="380" height="60" as="geometry" />
        </mxCell>
        <mxCell id="prUhgWZdjSa96GHESbX6-16" value="&lt;div style=&quot;font-family: Consolas, &amp;quot;Courier New&amp;quot;, monospace; line-height: 19px; font-size: 30px;&quot;&gt;&lt;div style=&quot;line-height: 19px; font-size: 30px;&quot;&gt;&lt;div style=&quot;font-weight: normal; font-size: 30px; line-height: 19px;&quot;&gt;&lt;div style=&quot;line-height: 19px; font-size: 30px;&quot;&gt;EngStat_calcPwr&lt;/div&gt;&lt;/div&gt;&lt;/div&gt;&lt;/div&gt;" style="rounded=1;whiteSpace=wrap;html=1;fontSize=30;fontStyle=1;fillColor=#6d8764;fontColor=#FFFFFF;strokeColor=#3A5431;strokeWidth=7;labelBackgroundColor=#6A997E;" parent="1" vertex="1">
          <mxGeometry x="680" y="310" width="380" height="60" as="geometry" />
        </mxCell>
        <mxCell id="prUhgWZdjSa96GHESbX6-17" value="&lt;div style=&quot;font-family: Consolas, &amp;quot;Courier New&amp;quot;, monospace; line-height: 19px; font-size: 30px;&quot;&gt;&lt;div style=&quot;line-height: 19px; font-size: 30px;&quot;&gt;&lt;div style=&quot;font-weight: normal; font-size: 30px; line-height: 19px;&quot;&gt;&lt;div style=&quot;line-height: 19px; font-size: 30px;&quot;&gt;&lt;div style=&quot;line-height: 19px; font-size: 30px;&quot;&gt;EngStat_getPwrCurve&lt;/div&gt;&lt;/div&gt;&lt;/div&gt;&lt;/div&gt;&lt;/div&gt;" style="rounded=1;whiteSpace=wrap;html=1;fontSize=30;fontStyle=1;fillColor=#6d8764;fontColor=#FFFFFF;strokeColor=#3A5431;strokeWidth=7;labelBackgroundColor=#6A997E;" parent="1" vertex="1">
          <mxGeometry x="890" y="150" width="380" height="60" as="geometry" />
        </mxCell>
        <mxCell id="prUhgWZdjSa96GHESbX6-18" value="&lt;div style=&quot;font-family: Consolas, &amp;quot;Courier New&amp;quot;, monospace; line-height: 19px; font-size: 30px;&quot;&gt;&lt;div style=&quot;line-height: 19px; font-size: 30px;&quot;&gt;&lt;div style=&quot;font-weight: normal; font-size: 30px; line-height: 19px;&quot;&gt;&lt;div style=&quot;line-height: 19px; font-size: 30px;&quot;&gt;EngStat_calcTorque&lt;/div&gt;&lt;/div&gt;&lt;/div&gt;&lt;/div&gt;" style="rounded=1;whiteSpace=wrap;html=1;fontSize=30;fontStyle=1;fillColor=#6d8764;fontColor=#FFFFFF;strokeColor=#3A5431;strokeWidth=7;labelBackgroundColor=#6A997E;" parent="1" vertex="1">
          <mxGeometry x="80" y="230" width="380" height="60" as="geometry" />
        </mxCell>
        <mxCell id="prUhgWZdjSa96GHESbX6-19" value="&lt;div style=&quot;font-family: Consolas, &amp;quot;Courier New&amp;quot;, monospace; line-height: 19px; font-size: 30px;&quot;&gt;&lt;div style=&quot;line-height: 19px; font-size: 30px;&quot;&gt;&lt;div style=&quot;font-weight: normal; font-size: 30px; line-height: 19px;&quot;&gt;&lt;div style=&quot;line-height: 19px; font-size: 30px;&quot;&gt;&lt;div style=&quot;line-height: 19px; font-size: 30px;&quot;&gt;EngStat_fluidSensors&lt;/div&gt;&lt;/div&gt;&lt;/div&gt;&lt;/div&gt;&lt;/div&gt;" style="rounded=1;whiteSpace=wrap;html=1;fontSize=30;fontStyle=1;fillColor=#6d8764;fontColor=#FFFFFF;strokeColor=#3A5431;strokeWidth=7;labelBackgroundColor=#6A997E;" parent="1" vertex="1">
          <mxGeometry x="485" y="230" width="380" height="60" as="geometry" />
        </mxCell>
        <mxCell id="prUhgWZdjSa96GHESbX6-20" value="&lt;div style=&quot;font-family: Consolas, &amp;quot;Courier New&amp;quot;, monospace; line-height: 19px; font-size: 30px;&quot;&gt;&lt;div style=&quot;line-height: 19px; font-size: 30px;&quot;&gt;&lt;div style=&quot;font-weight: normal; font-size: 30px; line-height: 19px;&quot;&gt;&lt;div style=&quot;line-height: 19px; font-size: 30px;&quot;&gt;&lt;div style=&quot;line-height: 19px; font-size: 30px;&quot;&gt;&lt;div style=&quot;line-height: 19px; font-size: 30px;&quot;&gt;EngStat_calcFuelCons&lt;/div&gt;&lt;/div&gt;&lt;/div&gt;&lt;/div&gt;&lt;/div&gt;&lt;/div&gt;" style="rounded=1;whiteSpace=wrap;html=1;fontSize=30;fontStyle=1;fillColor=#6d8764;fontColor=#FFFFFF;strokeColor=#3A5431;strokeWidth=7;labelBackgroundColor=#6A997E;" parent="1" vertex="1">
          <mxGeometry x="890" y="230" width="380" height="60" as="geometry" />
        </mxCell>
        <mxCell id="prUhgWZdjSa96GHESbX6-21" value="&lt;div style=&quot;font-family: Consolas, &amp;quot;Courier New&amp;quot;, monospace; line-height: 19px; font-size: 30px;&quot;&gt;&lt;div style=&quot;line-height: 19px; font-size: 30px;&quot;&gt;&lt;div style=&quot;font-weight: normal; font-size: 30px; line-height: 19px;&quot;&gt;&lt;div style=&quot;line-height: 19px; font-size: 30px;&quot;&gt;&lt;div style=&quot;line-height: 19px; font-size: 30px;&quot;&gt;EngStat_coolTemp&lt;/div&gt;&lt;/div&gt;&lt;/div&gt;&lt;/div&gt;&lt;/div&gt;" style="rounded=1;whiteSpace=wrap;html=1;fontSize=30;fontStyle=1;fillColor=#6d8764;fontColor=#FFFFFF;strokeColor=#3A5431;strokeWidth=7;labelBackgroundColor=#6A997E;" parent="1" vertex="1">
          <mxGeometry x="250" y="310" width="380" height="60" as="geometry" />
        </mxCell>
        <mxCell id="prUhgWZdjSa96GHESbX6-22" value="&lt;div style=&quot;font-family: Consolas, &amp;quot;Courier New&amp;quot;, monospace; line-height: 19px; font-size: 30px;&quot;&gt;&lt;div style=&quot;line-height: 19px; font-size: 30px;&quot;&gt;&lt;div style=&quot;font-weight: normal; font-size: 30px; line-height: 19px;&quot;&gt;&lt;div style=&quot;line-height: 19px; font-size: 30px;&quot;&gt;&lt;div style=&quot;line-height: 19px; font-size: 30px;&quot;&gt;&lt;div style=&quot;line-height: 19px; font-size: 30px;&quot;&gt;EngStat_calcSpeed&lt;/div&gt;&lt;/div&gt;&lt;/div&gt;&lt;/div&gt;&lt;/div&gt;&lt;/div&gt;" style="rounded=1;whiteSpace=wrap;html=1;fontSize=30;fontStyle=1;fillColor=#6d8764;fontColor=#FFFFFF;strokeColor=#3A5431;strokeWidth=7;labelBackgroundColor=#6A997E;" parent="1" vertex="1">
          <mxGeometry x="485" y="150" width="380" height="60" as="geometry" />
        </mxCell>
        <mxCell id="prUhgWZdjSa96GHESbX6-23" value="" style="endArrow=classic;html=1;rounded=0;exitX=0.166;exitY=0.002;exitDx=0;exitDy=0;exitPerimeter=0;entryX=0;entryY=0.5;entryDx=0;entryDy=0;strokeWidth=7;fillColor=#a20025;strokeColor=#FF0000;" parent="1" source="prUhgWZdjSa96GHESbX6-14" target="prUhgWZdjSa96GHESbX6-13" edge="1">
          <mxGeometry width="50" height="50" relative="1" as="geometry">
            <mxPoint x="480" y="410" as="sourcePoint" />
            <mxPoint x="530" y="360" as="targetPoint" />
            <Array as="points">
              <mxPoint x="340" y="90" />
            </Array>
          </mxGeometry>
        </mxCell>
        <mxCell id="prUhgWZdjSa96GHESbX6-25" value="" style="endArrow=classic;startArrow=classic;html=1;rounded=0;exitX=1;exitY=0.5;exitDx=0;exitDy=0;entryX=0;entryY=0.25;entryDx=0;entryDy=0;strokeWidth=7;strokeColor=#00FF00;" parent="1" source="prUhgWZdjSa96GHESbX6-13" target="prUhgWZdjSa96GHESbX6-11" edge="1">
          <mxGeometry width="50" height="50" relative="1" as="geometry">
            <mxPoint x="980" y="410" as="sourcePoint" />
            <mxPoint x="1030" y="360" as="targetPoint" />
          </mxGeometry>
        </mxCell>
        <mxCell id="prUhgWZdjSa96GHESbX6-26" value="" style="rounded=1;whiteSpace=wrap;html=1;fillColor=#1ba1e2;fontColor=#ffffff;strokeColor=#006EAF;strokeWidth=13;" parent="1" vertex="1">
          <mxGeometry x="100" y="480" width="420" height="100" as="geometry" />
        </mxCell>
        <mxCell id="prUhgWZdjSa96GHESbX6-27" value="&lt;div style=&quot;font-family: Consolas, &amp;quot;Courier New&amp;quot;, monospace; font-size: 30px; line-height: 19px;&quot;&gt;&lt;b style=&quot;background-color: rgb(51, 153, 255);&quot;&gt;PwSup_MainFunction&lt;/b&gt;&lt;/div&gt;" style="rounded=1;whiteSpace=wrap;html=1;strokeWidth=7;fillColor=#1ba1e2;fontColor=#ffffff;strokeColor=#006EAF;" parent="1" vertex="1">
          <mxGeometry x="120" y="500" width="370" height="60" as="geometry" />
        </mxCell>
        <mxCell id="prUhgWZdjSa96GHESbX6-28" value="" style="endArrow=classic;startArrow=classic;html=1;rounded=0;exitX=1;exitY=0;exitDx=0;exitDy=0;entryX=0;entryY=0.75;entryDx=0;entryDy=0;strokeWidth=7;strokeColor=#00FF00;" parent="1" source="prUhgWZdjSa96GHESbX6-26" target="prUhgWZdjSa96GHESbX6-11" edge="1">
          <mxGeometry width="50" height="50" relative="1" as="geometry">
            <mxPoint x="875" y="100" as="sourcePoint" />
            <mxPoint x="1360" y="150" as="targetPoint" />
          </mxGeometry>
        </mxCell>
        <mxCell id="prUhgWZdjSa96GHESbX6-29" value="" style="rounded=1;whiteSpace=wrap;html=1;fillColor=#fa6800;fontColor=#000000;strokeColor=#C73500;strokeWidth=13;" parent="1" vertex="1">
          <mxGeometry x="100" y="650" width="1090" height="490" as="geometry" />
        </mxCell>
        <mxCell id="prUhgWZdjSa96GHESbX6-30" value="&lt;div style=&quot;font-family: Consolas, &amp;quot;Courier New&amp;quot;, monospace; font-size: 30px; line-height: 19px;&quot;&gt;ErrMng_checkActiveError&lt;/div&gt;" style="rounded=1;whiteSpace=wrap;html=1;fillColor=#fa6800;fontColor=#000000;strokeColor=#C73500;strokeWidth=7;fontSize=30;labelBackgroundColor=#FF8000;fontStyle=1" parent="1" vertex="1">
          <mxGeometry x="720" y="690" width="420" height="60" as="geometry" />
        </mxCell>
        <mxCell id="prUhgWZdjSa96GHESbX6-31" value="&lt;div style=&quot;font-family: Consolas, &amp;quot;Courier New&amp;quot;, monospace; font-size: 30px; line-height: 19px;&quot;&gt;ErrMng_errInjRemoveDupl&lt;/div&gt;" style="rounded=1;whiteSpace=wrap;html=1;fillColor=#fa6800;fontColor=#000000;strokeColor=#C73500;strokeWidth=7;fontSize=30;labelBackgroundColor=#FF8000;fontStyle=1" parent="1" vertex="1">
          <mxGeometry x="720" y="1020" width="420" height="60" as="geometry" />
        </mxCell>
        <mxCell id="prUhgWZdjSa96GHESbX6-32" value="&lt;div style=&quot;font-family: Consolas, &amp;quot;Courier New&amp;quot;, monospace; font-size: 30px; line-height: 19px;&quot;&gt;ErrMng_clearErrorLog&lt;/div&gt;" style="rounded=1;whiteSpace=wrap;html=1;fillColor=#fa6800;fontColor=#000000;strokeColor=#C73500;strokeWidth=7;fontSize=30;labelBackgroundColor=#FF8000;fontStyle=1" parent="1" vertex="1">
          <mxGeometry x="720" y="910" width="420" height="60" as="geometry" />
        </mxCell>
        <mxCell id="prUhgWZdjSa96GHESbX6-33" value="&lt;div style=&quot;font-family: Consolas, &amp;quot;Courier New&amp;quot;, monospace; font-size: 30px; line-height: 19px;&quot;&gt;ErrMng_clearErrorMemory&lt;/div&gt;" style="rounded=1;whiteSpace=wrap;html=1;fillColor=#fa6800;fontColor=#000000;strokeColor=#C73500;strokeWidth=7;fontSize=30;labelBackgroundColor=#FF8000;fontStyle=1" parent="1" vertex="1">
          <mxGeometry x="720" y="800" width="420" height="60" as="geometry" />
        </mxCell>
        <mxCell id="prUhgWZdjSa96GHESbX6-40" value="&lt;div style=&quot;font-family: Consolas, &amp;quot;Courier New&amp;quot;, monospace; line-height: 19px;&quot;&gt;&lt;div style=&quot;line-height: 19px;&quot;&gt;&lt;font style=&quot;font-size: 24px;&quot;&gt;ErrMng_errInjInjectorMalfunction&lt;/font&gt;&lt;/div&gt;&lt;/div&gt;" style="rounded=1;whiteSpace=wrap;html=1;fillColor=#fa6800;fontColor=#000000;strokeColor=#C73500;strokeWidth=7;fontSize=30;labelBackgroundColor=#FF8000;fontStyle=1" parent="1" vertex="1">
          <mxGeometry x="170" y="680" width="430" height="60" as="geometry" />
        </mxCell>
        <mxCell id="prUhgWZdjSa96GHESbX6-41" value="&lt;div style=&quot;font-family: Consolas, &amp;quot;Courier New&amp;quot;, monospace; font-size: 30px; line-height: 19px;&quot;&gt;&lt;div style=&quot;line-height: 19px; font-size: 32px;&quot;&gt;&lt;font style=&quot;background-color: rgb(255, 128, 0);&quot;&gt;ErrMng_addErrorToMemory&lt;/font&gt;&lt;/div&gt;&lt;/div&gt;" style="rounded=1;whiteSpace=wrap;html=1;fillColor=#fa6800;fontColor=#000000;strokeColor=#C73500;strokeWidth=7;fontSize=30;labelBackgroundColor=#FF8000;fontStyle=1" parent="1" vertex="1">
          <mxGeometry x="170" y="760" width="430" height="60" as="geometry" />
        </mxCell>
        <mxCell id="prUhgWZdjSa96GHESbX6-42" value="" style="endArrow=classic;html=1;rounded=0;fontSize=13;strokeWidth=7;strokeColor=#FF0000;entryX=0.679;entryY=1.01;entryDx=0;entryDy=0;entryPerimeter=0;fillColor=#e51400;" parent="1" target="prUhgWZdjSa96GHESbX6-12" edge="1">
          <mxGeometry width="50" height="50" relative="1" as="geometry">
            <mxPoint x="590" y="770" as="sourcePoint" />
            <mxPoint x="771" y="600" as="targetPoint" />
          </mxGeometry>
        </mxCell>
        <mxCell id="prUhgWZdjSa96GHESbX6-43" value="" style="endArrow=classic;html=1;rounded=0;fontSize=13;strokeWidth=7;strokeColor=#FF0000;fillColor=#e51400;" parent="1" edge="1">
          <mxGeometry width="50" height="50" relative="1" as="geometry">
            <mxPoint x="740" y="610" as="sourcePoint" />
            <mxPoint x="1361" y="410" as="targetPoint" />
          </mxGeometry>
        </mxCell>
        <mxCell id="prUhgWZdjSa96GHESbX6-44" value="" style="endArrow=classic;html=1;rounded=0;fontSize=13;strokeWidth=7;strokeColor=#FF0000;entryX=1;entryY=1;entryDx=0;entryDy=0;fillColor=#e51400;" parent="1" target="prUhgWZdjSa96GHESbX6-26" edge="1">
          <mxGeometry width="50" height="50" relative="1" as="geometry">
            <mxPoint x="740" y="610" as="sourcePoint" />
            <mxPoint x="1431" y="470" as="targetPoint" />
          </mxGeometry>
        </mxCell>
        <mxCell id="prUhgWZdjSa96GHESbX6-45" value="" style="endArrow=classic;html=1;rounded=0;fontSize=13;strokeWidth=6;strokeColor=#FF0000;exitX=1;exitY=0;exitDx=0;exitDy=0;entryX=0;entryY=1;entryDx=0;entryDy=0;fillColor=#fa6800;" parent="1" source="prUhgWZdjSa96GHESbX6-40" target="prUhgWZdjSa96GHESbX6-16" edge="1">
          <mxGeometry width="50" height="50" relative="1" as="geometry">
            <mxPoint x="1260" y="650" as="sourcePoint" />
            <mxPoint x="1441" y="480" as="targetPoint" />
          </mxGeometry>
        </mxCell>
        <mxCell id="prUhgWZdjSa96GHESbX6-46" value="" style="rounded=1;whiteSpace=wrap;html=1;fillColor=#fad7ac;strokeColor=#b46504;strokeWidth=13;" parent="1" vertex="1">
          <mxGeometry x="1300" y="650" width="590" height="500" as="geometry" />
        </mxCell>
        <mxCell id="prUhgWZdjSa96GHESbX6-47" value="&lt;b style=&quot;font-family: Consolas, &amp;quot;Courier New&amp;quot;, monospace;&quot;&gt;&lt;font color=&quot;#000000&quot;&gt;SecAcc_mainFunction&lt;/font&gt;&lt;/b&gt;" style="rounded=1;whiteSpace=wrap;html=1;fillColor=#fad7ac;strokeColor=#b46504;strokeWidth=7;fontSize=30;labelBackgroundColor=#F8CECC;" parent="1" vertex="1">
          <mxGeometry x="1405.4" y="670" width="405" height="60" as="geometry" />
        </mxCell>
        <mxCell id="prUhgWZdjSa96GHESbX6-48" value="" style="rounded=0;whiteSpace=wrap;html=1;fillColor=#fad7ac;strokeColor=#b46504;strokeWidth=5;" parent="1" vertex="1">
          <mxGeometry x="1350" y="740" width="500" height="390" as="geometry" />
        </mxCell>
        <mxCell id="prUhgWZdjSa96GHESbX6-49" value="&lt;div style=&quot;font-family: Consolas, &amp;quot;Courier New&amp;quot;, monospace; font-size: 30px; line-height: 19px;&quot;&gt;SecAcc_genSeed&lt;/div&gt;" style="rounded=1;whiteSpace=wrap;html=1;fillColor=#fad7ac;strokeColor=#b46504;strokeWidth=7;fontSize=30;fontStyle=1;fontColor=#000000;labelBackgroundColor=#F8CECC;" parent="1" vertex="1">
          <mxGeometry x="1397.5" y="770" width="405" height="60" as="geometry" />
        </mxCell>
        <mxCell id="prUhgWZdjSa96GHESbX6-50" value="&lt;div style=&quot;font-family: Consolas, &amp;quot;Courier New&amp;quot;, monospace; font-size: 30px; line-height: 19px;&quot;&gt;SecAcc_checkKey&lt;/div&gt;" style="rounded=1;whiteSpace=wrap;html=1;fillColor=#fad7ac;strokeColor=#b46504;strokeWidth=7;fontSize=30;fontStyle=1;fontColor=#000000;labelBackgroundColor=#F8CECC;" parent="1" vertex="1">
          <mxGeometry x="1397.5" y="870" width="405" height="60" as="geometry" />
        </mxCell>
        <mxCell id="prUhgWZdjSa96GHESbX6-51" value="" style="endArrow=classic;startArrow=classic;html=1;rounded=0;exitX=0.5;exitY=0;exitDx=0;exitDy=0;entryX=0.5;entryY=1;entryDx=0;entryDy=0;strokeWidth=7;strokeColor=#00FF00;" parent="1" source="prUhgWZdjSa96GHESbX6-46" target="prUhgWZdjSa96GHESbX6-11" edge="1">
          <mxGeometry width="50" height="50" relative="1" as="geometry">
            <mxPoint x="850" y="650" as="sourcePoint" />
            <mxPoint x="1680" y="510" as="targetPoint" />
          </mxGeometry>
        </mxCell>
        <mxCell id="prUhgWZdjSa96GHESbX6-52" value="" style="endArrow=classic;startArrow=classic;html=1;rounded=0;exitX=1;exitY=0;exitDx=0;exitDy=0;entryX=0.045;entryY=0.995;entryDx=0;entryDy=0;strokeWidth=7;strokeColor=#00FF00;entryPerimeter=0;" parent="1" source="prUhgWZdjSa96GHESbX6-30" target="prUhgWZdjSa96GHESbX6-11" edge="1">
          <mxGeometry width="50" height="50" relative="1" as="geometry">
            <mxPoint x="1330" y="660" as="sourcePoint" />
            <mxPoint x="1350" y="450" as="targetPoint" />
          </mxGeometry>
        </mxCell>
        <mxCell id="prUhgWZdjSa96GHESbX6-53" value="" style="endArrow=classic;html=1;rounded=0;entryX=1;entryY=0;entryDx=0;entryDy=0;strokeWidth=7;strokeColor=#00FF00;" parent="1" target="prUhgWZdjSa96GHESbX6-33" edge="1">
          <mxGeometry width="50" height="50" relative="1" as="geometry">
            <mxPoint x="1210" y="620" as="sourcePoint" />
            <mxPoint x="1400" y="680" as="targetPoint" />
          </mxGeometry>
        </mxCell>
        <mxCell id="prUhgWZdjSa96GHESbX6-54" value="" style="endArrow=classic;html=1;rounded=0;entryX=1;entryY=0;entryDx=0;entryDy=0;strokeWidth=7;strokeColor=#00FF00;" parent="1" target="prUhgWZdjSa96GHESbX6-32" edge="1">
          <mxGeometry width="50" height="50" relative="1" as="geometry">
            <mxPoint x="1210" y="620" as="sourcePoint" />
            <mxPoint x="1400" y="680" as="targetPoint" />
          </mxGeometry>
        </mxCell>
        <mxCell id="prUhgWZdjSa96GHESbX6-55" value="" style="endArrow=classic;html=1;rounded=0;entryX=1;entryY=0;entryDx=0;entryDy=0;strokeWidth=7;strokeColor=#00FF00;" parent="1" target="prUhgWZdjSa96GHESbX6-31" edge="1">
          <mxGeometry width="50" height="50" relative="1" as="geometry">
            <mxPoint x="1210" y="620" as="sourcePoint" />
            <mxPoint x="1400" y="680" as="targetPoint" />
          </mxGeometry>
        </mxCell>
      </root>
    </mxGraphModel>
  </diagram>
</mxfile>
